<?xml version="1.0" encoding="iso-8859-1"?>
<!-- Generator: Adobe Illustrator 19.1.0, SVG Export Plug-In . SVG Version: 6.00 Build 0)  -->
<svg version="1.1" id="Capa_1" xmlns="http://www.w3.org/2000/svg" xmlns:xlink="http://www.w3.org/1999/xlink" x="0px" y="0px"
	 viewBox="0 0 63.288 63.288" style="enable-background:new 0 0 63.288 63.288;" xml:space="preserve">
<g>
	<g id="group-11svg">
		<path id="path-1_1_" d="M56.365,50.648c-0.394,0-0.787-0.154-1.082-0.461c-0.574-0.597-0.555-1.547,0.043-2.12
			c3.094-2.974,4.76-7.01,4.817-11.673c0.091-7.468-4.693-13.724-11.635-15.215c-5.81-1.246-11.461,0.649-15.111,5.074
			c-0.424,0.513-1.134,0.685-1.743,0.426c-1.604-0.68-3.263-1.025-4.934-1.025c-5.239,0-9.855,3.154-11.761,8.034
			c-0.269,0.693-1.009,1.082-1.728,0.918c-1.856-0.42-4.366-0.538-7.336,2.301c-1.782,1.705-2.76,3.827-2.751,5.974
			c0.005,1.207,0.274,2.364,0.803,3.439c0.365,0.743,0.057,1.642-0.686,2.007c-0.745,0.366-1.642,0.059-2.008-0.685
			c-0.729-1.486-1.102-3.084-1.109-4.749c-0.012-2.978,1.294-5.874,3.678-8.154c2.7-2.581,5.601-3.656,8.836-3.273
			c2.598-5.393,7.993-8.812,14.062-8.812c1.72,0,3.425,0.292,5.083,0.869c4.337-4.647,10.882-6.663,17.334-5.277
			c8.223,1.765,14.112,9.413,14.006,18.185c-0.067,5.484-2.052,10.256-5.739,13.799C57.113,50.509,56.739,50.648,56.365,50.648z"/>
		<path id="path-2_1_" d="M33.371,8.345c-0.204,0-0.411-0.042-0.608-0.129C32.005,7.879,31.665,6.992,32,6.236l2.374-5.344
			c0.335-0.757,1.221-1.099,1.979-0.762c0.758,0.336,1.099,1.223,0.763,1.98l-2.373,5.343C34.494,8.012,33.946,8.345,33.371,8.345z"
			/>
		<path id="path-3_1_" d="M10.223,17.258c-0.203,0-0.41-0.042-0.607-0.129l-5.344-2.373c-0.758-0.336-1.099-1.223-0.763-1.979
			c0.336-0.757,1.223-1.099,1.98-0.763l5.343,2.372c0.758,0.337,1.099,1.223,0.763,1.98C11.347,16.926,10.798,17.258,10.223,17.258z
			"/>
		<path id="path-4_1_" d="M43.059,16.19c-0.602,0-1.17-0.366-1.399-0.962c-0.298-0.773,0.087-1.641,0.86-1.939l4.084-1.573
			c0.769-0.296,1.641,0.087,1.938,0.861c0.298,0.773-0.086,1.641-0.86,1.939l-4.084,1.573C43.421,16.157,43.239,16.19,43.059,16.19z
			"/>
		<path id="path-5_1_" d="M4.256,31.131c-0.602,0-1.17-0.366-1.399-0.961c-0.298-0.774,0.087-1.641,0.86-1.94l5.106-1.966
			c0.768-0.297,1.64,0.088,1.938,0.861c0.298,0.774-0.087,1.641-0.86,1.939L4.795,31.03C4.619,31.098,4.436,31.131,4.256,31.131z"/>
		<path id="path-6_1_" d="M19.881,9.285c-0.602,0-1.17-0.365-1.399-0.962l-2.359-6.126c-0.298-0.773,0.086-1.642,0.86-1.939
			c0.768-0.296,1.641,0.087,1.938,0.861l2.36,6.126c0.298,0.774-0.087,1.641-0.861,1.939C20.244,9.253,20.061,9.285,19.881,9.285z"
			/>
		<path id="path-7_1_" d="M14.829,32.162c-0.171,0-0.346-0.029-0.516-0.092c-0.384-0.141-1.183-0.433-2.541-3.488
			c-1.519-3.94-1.413-8.157,0.269-11.947c1.683-3.79,4.741-6.697,8.61-8.187c3.87-1.49,8.087-1.384,11.876,0.299
			c3.79,1.682,6.697,4.74,8.186,8.609c0.298,0.773-0.087,1.641-0.86,1.939c-0.775,0.297-1.642-0.088-1.938-0.861
			c-1.203-3.122-3.548-5.588-6.605-6.945s-6.46-1.443-9.581-0.241c-3.122,1.202-5.588,3.547-6.945,6.605
			c-1.358,3.056-1.444,6.459-0.242,9.58c0.334,0.745,0.833,1.657,1.072,1.95c0.596,0.366,0.873,1.112,0.624,1.794
			C16.015,31.784,15.44,32.162,14.829,32.162z"/>
		<path id="path-8_1_" d="M48.969,44.686c-0.207,0-0.417-0.043-0.618-0.134c-0.755-0.342-1.089-1.23-0.747-1.985l1.095-2.417
			c0.342-0.754,1.229-1.089,1.985-0.747c0.755,0.342,1.089,1.231,0.747,1.985l-1.095,2.416
			C50.085,44.359,49.54,44.686,48.969,44.686z"/>
		<path id="path-9_1_" d="M39.395,44.686c-0.207,0-0.417-0.043-0.617-0.134c-0.755-0.341-1.09-1.23-0.748-1.985l1.093-2.416
			c0.341-0.755,1.233-1.09,1.985-0.748c0.755,0.341,1.09,1.23,0.748,1.984l-1.094,2.417C40.512,44.358,39.966,44.686,39.395,44.686z
			"/>
		<path id="path-10_1_" d="M29.821,44.686c-0.207,0-0.417-0.043-0.617-0.134c-0.755-0.341-1.09-1.23-0.748-1.985l1.093-2.416
			c0.341-0.755,1.232-1.09,1.985-0.748c0.755,0.341,1.089,1.23,0.748,1.984l-1.094,2.417C30.938,44.358,30.392,44.686,29.821,44.686
			z"/>
		<path id="path-11_1_" d="M20.246,44.686c-0.207,0-0.417-0.043-0.619-0.134c-0.755-0.342-1.088-1.23-0.747-1.985l1.095-2.417
			c0.342-0.754,1.229-1.089,1.985-0.747c0.755,0.342,1.089,1.231,0.748,1.985l-1.095,2.416
			C21.362,44.359,20.817,44.686,20.246,44.686z"/>
		<path id="path-12_1_" d="M10.671,44.686c-0.207,0-0.417-0.043-0.618-0.134c-0.755-0.342-1.089-1.23-0.747-1.985l1.095-2.417
			c0.342-0.754,1.228-1.089,1.985-0.747c0.755,0.342,1.089,1.231,0.747,1.985l-1.094,2.416
			C11.788,44.359,11.243,44.686,10.671,44.686z"/>
		<path id="path-13_1_" d="M41.31,54.534c-0.207,0-0.417-0.043-0.617-0.134c-0.755-0.342-1.09-1.23-0.748-1.985l1.094-2.416
			c0.34-0.755,1.231-1.09,1.984-0.748c0.755,0.342,1.09,1.23,0.748,1.985l-1.094,2.417C42.427,54.206,41.881,54.534,41.31,54.534z"
			/>
		<path id="path-14_1_" d="M31.735,54.534c-0.207,0-0.417-0.043-0.618-0.134c-0.755-0.342-1.089-1.231-0.747-1.986l1.094-2.416
			c0.342-0.755,1.23-1.09,1.986-0.747c0.755,0.342,1.089,1.231,0.747,1.986l-1.095,2.416C32.851,54.207,32.306,54.534,31.735,54.534
			z"/>
		<path id="path-15_1_" d="M22.161,54.534c-0.207,0-0.417-0.043-0.619-0.134c-0.754-0.342-1.088-1.231-0.747-1.986l1.095-2.416
			c0.342-0.755,1.229-1.09,1.985-0.747c0.755,0.342,1.089,1.231,0.748,1.986l-1.095,2.416
			C23.277,54.207,22.732,54.534,22.161,54.534z"/>
		<path id="path-16_1_" d="M12.586,54.534c-0.207,0-0.417-0.043-0.617-0.134c-0.755-0.342-1.09-1.23-0.748-1.985l1.094-2.416
			c0.34-0.755,1.232-1.09,1.984-0.748c0.755,0.342,1.09,1.23,0.748,1.985l-1.093,2.417C13.704,54.206,13.158,54.534,12.586,54.534z"
			/>
		<path id="path-17_1_" d="M32.556,63.288c-0.207,0-0.417-0.043-0.617-0.134c-0.755-0.342-1.09-1.23-0.748-1.985l1.094-2.416
			c0.34-0.756,1.231-1.09,1.984-0.748c0.755,0.341,1.09,1.23,0.748,1.985l-1.094,2.416C33.673,62.96,33.127,63.288,32.556,63.288z"
			/>
		<path id="path-18" d="M22.982,63.288c-0.207,0-0.417-0.043-0.617-0.134c-0.755-0.342-1.09-1.23-0.748-1.985l1.093-2.416
			c0.341-0.756,1.233-1.09,1.985-0.748c0.755,0.341,1.09,1.23,0.748,1.985l-1.094,2.416C24.099,62.96,23.553,63.288,22.982,63.288z"
			/>
		<path id="path-19" d="M13.407,63.288c-0.207,0-0.417-0.043-0.618-0.134c-0.755-0.342-1.089-1.23-0.748-1.985l1.095-2.417
			c0.342-0.755,1.229-1.089,1.986-0.747c0.754,0.341,1.088,1.231,0.747,1.985l-1.095,2.417
			C14.523,62.961,13.978,63.288,13.407,63.288z"/>
	</g>
</g>
<g>
</g>
<g>
</g>
<g>
</g>
<g>
</g>
<g>
</g>
<g>
</g>
<g>
</g>
<g>
</g>
<g>
</g>
<g>
</g>
<g>
</g>
<g>
</g>
<g>
</g>
<g>
</g>
<g>
</g>
</svg>
